<svg preserveAspectRatio="none" overflow="visible" style="display: block;" width="148" height="28.0972" viewBox="0 0 148 28.0972" fill="none" xmlns="http://www.w3.org/2000/svg">
<g id="runabout logo">
<path id="Vector" d="M143.281 28.0972C140.443 28.0972 138.526 26.2908 138.526 22.5306V11.508H136.093C135.761 11.508 135.54 11.2868 135.54 10.955V10.5863C135.54 10.2546 135.724 10.0334 136.093 10.0334H137.42C139.189 10.0334 140.037 8.63249 140.221 6.53119C140.258 6.05194 140.516 5.79389 140.848 5.79389H141.217C141.659 5.79389 141.807 6.05194 141.807 6.53119L141.844 10.0334H146.931C147.226 10.0334 147.484 10.2914 147.484 10.5863V10.955C147.484 11.2868 147.226 11.508 146.931 11.508H141.844V22.5675C141.844 24.595 142.802 25.6641 144.166 25.6641C145.788 25.6641 146.747 24.7056 146.894 23.4522C147.115 22.8992 148 22.9361 148 23.5997C148 25.8853 146.23 28.0972 143.281 28.0972Z" fill="currentColor"/>
<path id="Vector_2" d="M132.283 24.5582C132.283 27.2493 134.348 26.1065 134.348 27.1756C134.348 27.8023 133.61 27.9498 132.062 27.9498C130.403 27.9498 129.297 27.2862 129.371 25.2217L129.297 25.0006C128.228 26.9544 126.237 28.0972 123.62 28.0972C119.602 28.0972 116.8 25.148 116.8 19.692V13.1669C116.8 11.766 115.436 11.6554 115.436 11.0287V10.9181C115.436 10.6601 115.657 10.4389 115.989 10.3652L119.086 9.81218C119.712 9.70158 120.081 9.77531 120.081 10.2546L120.044 19.9501C120.044 24.2264 121.592 26.6595 124.394 26.6595C127.011 26.6595 129.076 24.4476 129.076 21.056V13.1669C129.076 11.766 127.638 11.6923 127.638 11.0287V10.9181C127.638 10.6601 127.823 10.4389 128.191 10.3652L131.325 9.81218C131.951 9.70158 132.283 9.77531 132.283 10.2546V24.5582Z" fill="currentColor"/>
<path id="Vector_3" d="M105.141 28.0972C99.2793 28.0972 95.5191 23.6366 95.5191 18.6229C95.5191 13.4987 99.4267 9.66472 104.477 9.66472C110.007 9.66472 113.841 13.8673 113.841 19.0284C113.841 24.1158 110.339 28.0972 105.141 28.0972ZM105.583 26.8807C108.459 26.8807 110.597 24.2633 110.597 20.1344C110.597 14.9733 107.869 10.8813 104.109 10.8813C100.975 10.8813 98.8 13.4618 98.8 17.5907C98.8 22.3094 101.528 26.8807 105.583 26.8807Z" fill="currentColor"/>
<path id="Vector_4" d="M84.7657 9.66471C89.3001 9.66471 93.2446 13.1669 93.2446 18.6229C93.2446 24.0789 89.4844 28.0972 84.8025 28.0972C82.3694 28.0972 80.4156 27.065 79.1253 25.2955L79.1622 27.1756C79.1622 27.5811 78.941 27.7654 78.5355 27.7654L75.3282 27.7286C74.9964 27.7286 74.7752 27.5811 74.7752 27.323V27.2125C74.7752 26.5489 76.1392 26.4383 76.1392 25.1111V4.46675C76.1392 2.95528 74.6646 2.91842 74.6646 2.25485V2.14426C74.6646 1.8862 74.849 1.73874 75.2913 1.55441L78.2037 0.153545C78.9041 -0.17824 79.3465 0.0429491 79.3465 0.669655V12.0609C80.5262 10.5863 82.5169 9.66471 84.7657 9.66471ZM84.3233 26.9175C87.7517 26.9175 89.9636 24.0421 89.9636 19.5077C89.9636 14.4203 87.5305 10.8444 83.9178 10.8444C81.4847 10.8444 79.3465 12.9826 79.3465 15.4894V20.7242L79.3096 21.2403H79.3465C79.3465 24.1895 81.7796 26.9175 84.3233 26.9175Z" fill="currentColor"/>
<path id="Vector_5" d="M70.9834 24.7794C71.2045 27.065 73.0478 26.254 73.0478 27.1756C73.0478 27.7286 72.0524 27.9498 70.6884 27.9498C69.0295 27.9498 68.1447 27.5442 67.9973 25.5167C67.1494 27.065 65.3799 28.0972 62.6887 28.0972C58.6336 28.0972 55.8318 26.0696 55.8318 22.5306C55.795 18.9916 58.7442 17.0746 62.5781 17.0746C64.532 17.0746 66.1172 17.6276 67.1125 18.5492L67.0388 17.5538C66.6333 13.2038 65.4536 10.8444 62.5044 10.8444C58.6704 10.8444 59.2603 15.047 57.417 15.047C56.5323 15.047 55.9793 14.5309 55.9793 13.683C55.9793 11.7292 58.4861 9.66472 62.5044 9.66472C67.0388 9.66472 69.7668 12.5771 70.2461 17.4432L70.9834 24.7794ZM63.4998 26.9175C65.9697 26.9175 67.5918 25.1112 67.518 22.8624L67.3706 21.2035C67.0019 19.4708 65.4905 18.2543 63.3154 18.2543C60.8086 18.2543 59.076 19.8026 59.076 22.0882C59.076 24.7794 60.8455 26.9175 63.4998 26.9175Z" fill="currentColor"/>
<path id="Vector_6" d="M52.5935 25.0743C52.6672 26.4383 53.9206 26.4383 53.9206 27.1387V27.2862C53.9206 27.5811 53.6257 27.7654 53.1464 27.7654H48.7595C48.2803 27.7654 47.9853 27.5811 47.9853 27.2862V27.1387C47.9853 26.4383 49.3862 26.4383 49.3125 25.1112L48.9438 17.7381C48.7595 13.2406 46.9531 11.1024 44.4094 11.1024C41.6814 11.1024 39.8013 13.2775 39.8013 16.1898V25.148C39.8013 26.4383 41.2759 26.4383 41.2759 27.1387V27.2862C41.2759 27.5811 40.981 27.7654 40.5017 27.7654H35.8936C35.4512 27.7654 35.1563 27.5811 35.1563 27.2862V27.1387C35.1563 26.4383 36.5941 26.4383 36.5941 25.148V13.9779C36.5941 12.3927 35.0457 12.4665 35.0457 11.8029V11.6923C35.0457 11.4342 35.2669 11.2868 35.6356 11.1393L38.4004 9.81217C39.1009 9.44352 39.4327 9.81217 39.4327 10.3651V13.0563C40.5017 10.9919 42.6399 9.66472 45.1836 9.66472C48.7964 9.66472 51.8193 12.0978 52.1879 17.8119L52.5935 25.0743Z" fill="currentColor"/>
<path id="Vector_7" d="M30.8877 24.5582C30.8877 27.2493 32.9521 26.1065 32.9521 27.1756C32.9521 27.8023 32.2148 27.9498 30.6665 27.9498C29.0076 27.9498 27.9016 27.2862 27.9753 25.2217L27.9016 25.0006C26.8325 26.9544 24.8418 28.0972 22.2244 28.0972C18.2061 28.0972 15.4044 25.148 15.4044 19.692V13.1669C15.4044 11.766 14.0404 11.6554 14.0404 11.0287V10.9181C14.0404 10.6601 14.2616 10.4389 14.5934 10.3652L17.69 9.81218C18.3167 9.70158 18.6854 9.77531 18.6854 10.2546L18.6485 19.9501C18.6485 24.2264 20.1968 26.6595 22.9986 26.6595C25.616 26.6595 27.6804 24.4476 27.6804 21.056V13.1669C27.6804 11.766 26.2427 11.6923 26.2427 11.0287V10.9181C26.2427 10.6601 26.427 10.4389 26.7957 10.3652L29.9292 9.81218C30.5559 9.70158 30.8877 9.77531 30.8877 10.2546V24.5582Z" fill="currentColor"/>
<path id="Vector_8" d="M9.10566 9.66472C11.3176 9.66472 12.4972 10.955 12.4972 12.5033C12.4972 13.4618 12.0549 14.236 11.0226 14.236C9.10566 14.236 10.0273 11.6554 7.74165 11.6554C5.71408 11.6554 4.60813 13.9779 4.60813 16.7428V25.148C4.60813 26.4383 6.15646 26.4752 6.15646 27.1387V27.2862C6.15646 27.5811 5.8984 27.7286 5.41916 27.7286H0.847896C0.368651 27.7286 0.110595 27.5811 0.110595 27.2862V27.1387C0.110595 26.4752 1.4746 26.4383 1.4746 25.148V13.9411C1.4746 12.5402 0 12.5033 0 11.8029V11.7292C0 11.4711 0.22119 11.2499 0.552975 11.0656L3.35472 9.81217C4.05515 9.48039 4.31321 9.77531 4.31321 10.3283V13.2775C5.12424 10.9181 6.82002 9.66472 9.10566 9.66472Z" fill="currentColor"/>
</g>
</svg>
